<svg width="68" height="68" viewBox="0 0 68 68" fill="none" xmlns="http://www.w3.org/2000/svg">
<g clip-path="url(#clip0_717_19)">
<mask id="mask0_717_19" style="mask-type:luminance" maskUnits="userSpaceOnUse" x="0" y="0" width="68" height="68">
<path d="M43.1392 0H43.0168H36.5364H24.8608C4.386 0 0 4.3928 0 24.8608V43.1392C0 63.614 4.3928 68 24.8608 68H36.5364H43.0168H43.1392C63.614 68 68 63.6072 68 43.1392V24.8608C68 4.386 63.6072 0 43.1392 0Z" fill="white"/>
</mask>
<g mask="url(#mask0_717_19)">
<rect width="68" height="68" fill="#5EA751"/>
</g>
<path fill-rule="evenodd" clip-rule="evenodd" d="M34.5584 59.7263C29.458 59.7263 27.0877 58.9817 22.9676 56.0034C20.3615 59.354 12.1089 61.9725 11.749 57.4925C11.749 54.1295 11.0045 51.2876 10.1606 48.1851C9.15538 44.3629 8.01367 40.1063 8.01367 33.9386C8.01367 19.208 20.1009 8.126 34.4219 8.126C48.7553 8.126 59.9863 19.7541 59.9863 34.0751C60.0344 48.1746 48.6579 59.6511 34.5584 59.7263ZM34.7694 20.8585C27.795 20.4987 22.3595 25.3261 21.1557 32.8961C20.163 39.1631 21.9252 46.7952 23.4268 47.1923C24.1465 47.3661 25.9584 45.9017 27.0877 44.7724C28.955 46.0624 31.1295 46.8372 33.3919 47.0186C40.6185 47.3662 46.7933 41.8646 47.2786 34.6459C47.561 27.412 41.997 21.2849 34.7694 20.871L34.7694 20.8585Z" fill="#FFFBEC"/>
</g>
<defs>
<clipPath id="clip0_717_19">
<rect width="68" height="68" fill="white"/>
</clipPath>
</defs>
</svg>
