<svg width="69" height="69" viewBox="0 0 69 69" fill="none" xmlns="http://www.w3.org/2000/svg">
<g clip-path="url(#clip0_717_18)">
<path d="M68.2609 34.1304C68.2609 43.1824 64.665 51.8636 58.2643 58.2643C51.8636 64.665 43.1824 68.2609 34.1304 68.2609C25.0785 68.2609 16.3973 64.665 9.99657 58.2643C3.59588 51.8636 0 43.1824 0 34.1304C0 25.0785 3.59588 16.3973 9.99657 9.99657C16.3973 3.59588 25.0785 0 34.1304 0C43.1824 0 51.8636 3.59588 58.2643 9.99657C64.665 16.3973 68.2609 25.0785 68.2609 34.1304ZM35.3549 25.1968C32.0357 26.5791 25.3973 29.4375 15.4483 33.7721C13.8356 34.412 12.9866 35.0434 12.9098 35.6578C12.7818 36.6945 14.0831 37.1041 15.8536 37.6629L16.6002 37.8976C18.3408 38.465 20.6873 39.1263 21.9032 39.1519C23.0124 39.1775 24.2454 38.7252 25.6064 37.7867C34.9026 31.5109 39.7022 28.3411 40.0009 28.2728C40.2142 28.2216 40.5128 28.1619 40.7091 28.3411C40.9096 28.516 40.8883 28.853 40.8669 28.9426C40.7389 29.493 35.6322 34.2371 32.9913 36.6945C32.1679 37.4624 31.5835 38.0042 31.464 38.128C31.2009 38.3968 30.9336 38.6613 30.6619 38.9215C29.0407 40.483 27.8291 41.6519 30.7259 43.5632C32.121 44.4848 33.2388 45.2399 34.3523 45.9993C35.5639 46.827 36.7755 47.6504 38.3455 48.6828C38.7423 48.9388 39.1263 49.2161 39.4974 49.4806C40.9096 50.4874 42.1852 51.3919 43.751 51.2468C44.6639 51.1615 45.6068 50.3083 46.0846 47.7485C47.2152 41.7031 49.4379 28.6098 49.9499 23.213C49.9811 22.7643 49.9625 22.3136 49.8944 21.8691C49.8543 21.5104 49.6807 21.1799 49.4081 20.9433C49.0199 20.6753 48.5571 20.5365 48.0855 20.5465C46.8056 20.5679 44.8303 21.2547 35.3549 25.1968Z" fill="#5EA751"/>
</g>
<defs>
<clipPath id="clip0_717_18">
<rect width="68.2609" height="68.2609" fill="white"/>
</clipPath>
</defs>
</svg>
