<svg width="69" height="69" viewBox="0 0 69 69" fill="none" xmlns="http://www.w3.org/2000/svg">
<g clip-path="url(#clip0_717_17)">
<path fill-rule="evenodd" clip-rule="evenodd" d="M58.3428 9.91659C52.0153 3.54734 43.4016 -0.0238232 34.4239 0.000115768C15.7842 0.000115768 0.614447 15.1683 0.607962 33.8127C0.600001 39.7466 2.15701 45.5775 5.12192 50.7175L0.324219 68.2415L18.2504 63.5395C23.2079 66.2409 28.7636 67.6562 34.4094 67.6562H34.4239C53.0602 67.6562 68.2315 52.4863 68.2381 33.842C68.2671 24.8654 64.7038 16.2503 58.3428 9.91659ZM49.84 40.8868C48.9953 40.4636 44.8414 38.4209 44.0663 38.1305C43.2913 37.8404 42.7287 37.7073 42.1661 38.5537C41.6035 39.4002 39.9837 41.3021 39.4908 41.8664C38.9979 42.4304 38.505 42.5001 37.66 42.0771C36.8153 41.6539 34.0931 40.762 30.8649 37.8842C28.3533 35.6433 26.6492 32.8773 26.1628 32.0308C25.6764 31.1844 26.1109 30.7336 26.5341 30.3055C26.9135 29.9278 27.3789 29.3197 27.8004 28.8254C28.222 28.3308 28.3647 27.9806 28.645 27.4163C28.9258 26.8521 28.7861 26.3592 28.5754 25.936C28.3647 25.5128 26.6736 21.3539 25.9699 19.6628C25.284 18.0155 24.5884 18.2376 24.0696 18.2035C23.5832 18.1792 23.0124 18.1744 22.4482 18.1744C21.5824 18.197 20.7654 18.5802 20.1945 19.2315C19.421 20.0779 17.2387 22.1208 17.2387 26.2797C17.2387 30.4387 20.2658 34.4564 20.6874 35.0207C21.1089 35.585 26.646 44.1184 35.1179 47.7795C36.6913 48.4581 38.2991 49.0534 39.9351 49.5631C41.9585 50.2116 43.8004 50.116 45.2563 49.8987C46.8778 49.6555 50.2553 47.854 50.9604 45.8807C51.6657 43.9077 51.6643 42.2148 51.447 41.863C51.2297 41.5111 50.6848 41.3166 49.84 40.8934V40.8868Z" fill="#5EA751"/>
</g>
<defs>
<clipPath id="clip0_717_17">
<rect width="68.2609" height="68.2609" fill="white"/>
</clipPath>
</defs>
</svg>
