<svg width="1121" height="1875" viewBox="0 0 1121 1875" fill="none" xmlns="http://www.w3.org/2000/svg">
<path d="M0.000141074 68.3863C0.000144024 30.6176 30.6178 0 68.3865 0H1052.37C1090.14 0 1120.76 30.6176 1120.76 68.3864L1120.76 1805.7C1120.76 1843.47 1090.14 1874.09 1052.37 1874.09H68.3863C30.6175 1874.09 2.39206e-06 1843.47 5.34282e-06 1805.7L0.000141074 68.3863Z" fill="#F7BBD7"/>
<path d="M1076.27 1735.81C674.37 1735.81 449.039 1735.81 47.138 1735.81V1240.28H1076.27V1735.81Z" fill="#FFFBEC"/>
<path d="M47.138 1733.68C47.138 1755.25 75.9354 1772.73 111.459 1772.73C146.982 1772.73 175.78 1755.25 175.78 1733.68C175.78 1712.12 146.982 1694.64 111.459 1694.64C75.9354 1694.64 47.138 1712.12 47.138 1733.68Z" fill="#FFFBEC"/>
<path d="M304.421 1733.68C304.421 1755.25 333.219 1772.73 368.742 1772.73C404.265 1772.73 433.063 1755.25 433.063 1733.68C433.063 1712.12 404.265 1694.64 368.742 1694.64C333.219 1694.64 304.421 1712.12 304.421 1733.68Z" fill="#FFFBEC"/>
<path d="M561.705 1733.68C561.705 1755.25 590.502 1772.73 626.025 1772.73C661.549 1772.73 690.346 1755.25 690.346 1733.68C690.346 1712.12 661.549 1694.64 626.025 1694.64C590.502 1694.64 561.705 1712.12 561.705 1733.68Z" fill="#FFFBEC"/>
<path d="M818.988 1733.68C818.988 1755.25 847.785 1772.73 883.309 1772.73C918.832 1772.73 947.629 1755.25 947.629 1733.68C947.629 1712.12 918.832 1694.64 883.309 1694.64C847.785 1694.64 818.988 1712.12 818.988 1733.68Z" fill="#FFFBEC"/>
<path d="M175.78 1733.68C175.78 1755.25 204.577 1772.73 240.1 1772.73C275.624 1772.73 304.421 1755.25 304.421 1733.68C304.421 1712.12 275.624 1694.64 240.1 1694.64C204.577 1694.64 175.78 1712.12 175.78 1733.68Z" fill="#FFFBEC"/>
<path d="M433.063 1733.68C433.063 1755.25 461.86 1772.73 497.384 1772.73C532.907 1772.73 561.705 1755.25 561.705 1733.68C561.705 1712.12 532.907 1694.64 497.384 1694.64C461.86 1694.64 433.063 1712.12 433.063 1733.68Z" fill="#FFFBEC"/>
<path d="M690.346 1733.68C690.346 1755.25 719.144 1772.73 754.667 1772.73C790.19 1772.73 818.988 1755.25 818.988 1733.68C818.988 1712.12 790.19 1694.64 754.667 1694.64C719.144 1694.64 690.346 1712.12 690.346 1733.68Z" fill="#FFFBEC"/>
<path d="M947.629 1733.68C947.629 1755.25 976.427 1772.73 1011.95 1772.73C1047.47 1772.73 1076.27 1755.25 1076.27 1733.68C1076.27 1712.12 1047.47 1694.64 1011.95 1694.64C976.427 1694.64 947.629 1712.12 947.629 1733.68Z" fill="#FFFBEC"/>
<path d="M1076.27 89.6218H47.1379L47.138 1240.28H1076.27V89.6218Z" fill="#FFFBEC"/>
<path d="M47.1379 91.7516C47.1379 70.1871 75.9354 52.7056 111.459 52.7056C146.982 52.7056 175.78 70.1871 175.78 91.7516C175.78 144.9 47.1379 144.9 47.1379 91.7516Z" fill="#FFFBEC"/>
<path d="M304.421 91.7516C304.421 70.1871 333.219 52.7056 368.742 52.7056C404.265 52.7056 433.063 70.1871 433.063 91.7516C433.063 144.9 304.421 144.9 304.421 91.7516Z" fill="#FFFBEC"/>
<path d="M561.705 91.7516C561.705 70.1871 590.502 52.7056 626.025 52.7056C661.549 52.7056 690.346 70.1871 690.346 91.7516C690.346 144.896 561.705 144.791 561.705 91.7516Z" fill="#FFFBEC"/>
<path d="M818.988 91.7516C818.988 70.1871 847.785 52.7056 883.309 52.7056C918.832 52.7056 947.629 70.1871 947.629 91.7516C947.629 144.9 818.988 144.9 818.988 91.7516Z" fill="#FFFBEC"/>
<path d="M175.78 91.7516C175.78 70.1871 204.577 52.7056 240.1 52.7056C275.624 52.7056 304.421 70.1871 304.421 91.7516C304.421 144.9 175.78 144.9 175.78 91.7516Z" fill="#FFFBEC"/>
<path d="M433.063 91.7516C433.063 70.1871 461.86 52.7056 497.384 52.7056C532.907 52.7056 561.705 70.1871 561.705 91.7516C561.705 144.9 433.063 144.9 433.063 91.7516Z" fill="#FFFBEC"/>
<path d="M690.346 91.7516C690.346 70.1871 719.144 52.7056 754.667 52.7056C790.19 52.7056 818.988 70.1871 818.988 91.7516C818.988 144.9 690.346 144.9 690.346 91.7516Z" fill="#FFFBEC"/>
<path d="M947.629 91.7516C947.629 70.1871 976.427 52.7056 1011.95 52.7056C1047.47 52.7056 1076.27 70.1871 1076.27 91.7516C1076.27 144.9 947.629 144.9 947.629 91.7516Z" fill="#FFFBEC"/>
<path d="M1076.27 1786.49C674.37 1786.49 449.039 1786.49 47.138 1786.49V1290.96H1076.27V1786.49Z" fill="#FFFBEC"/>
<path d="M47.138 1784.36C47.138 1805.93 75.9354 1823.41 111.459 1823.41C146.982 1823.41 175.78 1805.93 175.78 1784.36C175.78 1762.8 146.982 1745.32 111.459 1745.32C75.9354 1745.32 47.138 1762.8 47.138 1784.36Z" fill="#FFFBEC"/>
<path d="M304.421 1784.36C304.421 1805.93 333.219 1823.41 368.742 1823.41C404.265 1823.41 433.063 1805.93 433.063 1784.36C433.063 1762.8 404.265 1745.32 368.742 1745.32C333.219 1745.32 304.421 1762.8 304.421 1784.36Z" fill="#FFFBEC"/>
<path d="M561.705 1784.36C561.705 1805.93 590.502 1823.41 626.025 1823.41C661.549 1823.41 690.346 1805.93 690.346 1784.36C690.346 1762.8 661.549 1745.32 626.025 1745.32C590.502 1745.32 561.705 1762.8 561.705 1784.36Z" fill="#FFFBEC"/>
<path d="M818.988 1784.36C818.988 1805.93 847.785 1823.41 883.309 1823.41C918.832 1823.41 947.629 1805.93 947.629 1784.36C947.629 1762.8 918.832 1745.32 883.309 1745.32C847.785 1745.32 818.988 1762.8 818.988 1784.36Z" fill="#FFFBEC"/>
<path d="M175.78 1784.36C175.78 1805.93 204.577 1823.41 240.1 1823.41C275.624 1823.41 304.421 1805.93 304.421 1784.36C304.421 1762.8 275.624 1745.32 240.1 1745.32C204.577 1745.32 175.78 1762.8 175.78 1784.36Z" fill="#FFFBEC"/>
<path d="M433.063 1784.36C433.063 1805.93 461.86 1823.41 497.384 1823.41C532.907 1823.41 561.705 1805.93 561.705 1784.36C561.705 1762.8 532.907 1745.32 497.384 1745.32C461.86 1745.32 433.063 1762.8 433.063 1784.36Z" fill="#FFFBEC"/>
<path d="M690.346 1784.36C690.346 1805.93 719.144 1823.41 754.667 1823.41C790.19 1823.41 818.988 1805.93 818.988 1784.36C818.988 1762.8 790.19 1745.32 754.667 1745.32C719.144 1745.32 690.346 1762.8 690.346 1784.36Z" fill="#FFFBEC"/>
<path d="M947.629 1784.36C947.629 1805.93 976.427 1823.41 1011.95 1823.41C1047.47 1823.41 1076.27 1805.93 1076.27 1784.36C1076.27 1762.8 1047.47 1745.32 1011.95 1745.32C976.427 1745.32 947.629 1762.8 947.629 1784.36Z" fill="#FFFBEC"/>
<path d="M1076.27 140.3H47.1379L47.138 1290.96H1076.27V140.3Z" fill="#FFFBEC"/>
<path d="M47.1379 142.43C47.1379 120.865 75.9354 103.384 111.459 103.384C146.982 103.384 175.78 120.865 175.78 142.43C175.78 195.578 47.1379 195.578 47.1379 142.43Z" fill="#FFFBEC"/>
<path d="M304.421 142.43C304.421 120.865 333.219 103.384 368.742 103.384C404.265 103.384 433.063 120.865 433.063 142.43C433.063 195.578 304.421 195.578 304.421 142.43Z" fill="#FFFBEC"/>
<path d="M561.705 142.43C561.705 120.865 590.502 103.384 626.025 103.384C661.549 103.384 690.346 120.865 690.346 142.43C690.346 195.574 561.705 195.469 561.705 142.43Z" fill="#FFFBEC"/>
<path d="M818.988 142.43C818.988 120.865 847.785 103.384 883.309 103.384C918.832 103.384 947.629 120.865 947.629 142.43C947.629 195.578 818.988 195.578 818.988 142.43Z" fill="#FFFBEC"/>
<path d="M175.78 142.43C175.78 120.865 204.577 103.384 240.1 103.384C275.624 103.384 304.421 120.865 304.421 142.43C304.421 195.578 175.78 195.578 175.78 142.43Z" fill="#FFFBEC"/>
<path d="M433.063 142.43C433.063 120.865 461.86 103.384 497.384 103.384C532.907 103.384 561.705 120.865 561.705 142.43C561.705 195.578 433.063 195.578 433.063 142.43Z" fill="#FFFBEC"/>
<path d="M690.346 142.43C690.346 120.865 719.144 103.384 754.667 103.384C790.19 103.384 818.988 120.865 818.988 142.43C818.988 195.578 690.346 195.578 690.346 142.43Z" fill="#FFFBEC"/>
<path d="M947.629 142.43C947.629 120.865 976.427 103.384 1011.95 103.384C1047.47 103.384 1076.27 120.865 1076.27 142.43C1076.27 195.578 947.629 195.578 947.629 142.43Z" fill="#FFFBEC"/>
</svg>
